<?xml version="1.0" standalone="no"?>
<!DOCTYPE svg PUBLIC "-//W3C//DTD SVG 20010904//EN"
 "http://www.w3.org/TR/2001/REC-SVG-20010904/DTD/svg10.dtd">
<svg version="1.0" xmlns="http://www.w3.org/2000/svg"
 width="1200.000000pt" height="1200.000000pt" viewBox="0 0 1200.000000 1200.000000"
 preserveAspectRatio="xMidYMid meet">

<g transform="translate(0.000000,1200.000000) scale(0.100000,-0.100000)"
fill="#000000" stroke="none">
<path d="M0 6000 l0 -6000 6000 0 6000 0 0 6000 0 6000 -6000 0 -6000 0 0
-6000z m5258 3600 c394 -42 750 -187 1067 -435 119 -93 314 -299 454 -480 68
-88 133 -170 143 -181 l19 -21 79 38 c43 21 123 51 177 66 90 25 113 27 288
27 168 1 199 -2 270 -22 473 -134 748 -434 850 -924 l18 -86 64 -27 c65 -28
241 -141 303 -195 l34 -30 -1634 0 c-1326 -1 -1649 -3 -1710 -14 -284 -51
-508 -238 -588 -491 -14 -43 -16 -144 -19 -732 l-4 -683 260 0 261 0 0 558 c0
607 3 645 56 743 36 65 110 134 182 167 l57 27 2015 3 c1849 2 2019 1 2061
-14 99 -36 187 -124 230 -231 l24 -58 3 -597 c2 -444 6 -598 14 -598 9 0 9 -3
0 -12 -17 -17 -17 -1749 0 -1766 9 -9 9 -12 0 -12 -9 0 -12 -95 -12 -398 0
-245 -4 -421 -11 -458 -25 -139 -126 -285 -234 -343 l-50 -26 -1997 -3 c-1951
-2 -1999 -2 -2053 17 -136 48 -247 201 -274 378 -7 43 -11 226 -11 452 l0 381
-1914 2 -1913 3 303 444 c228 334 301 448 294 460 -17 31 -106 150 -190 254
-47 58 -114 156 -149 219 -35 62 -108 179 -163 261 l-99 147 41 0 c22 0 40 2
40 4 0 3 -7 33 -15 68 -107 462 -26 926 226 1308 77 116 288 331 404 412 44
31 163 102 265 159 102 56 186 104 188 105 2 1 17 98 34 215 16 118 45 273 63
344 188 746 738 1301 1495 1508 105 29 227 51 395 70 68 8 272 6 363 -3z"/>
<path d="M7277 6435 c-57 -21 -117 -65 -153 -112 -135 -177 -76 -422 124 -520
49 -24 69 -28 142 -28 71 0 94 4 142 27 69 32 134 96 168 163 36 72 40 188 9
270 -30 82 -112 164 -192 194 -68 25 -180 27 -240 6z"/>
<path d="M8219 6427 c-142 -60 -214 -175 -207 -332 5 -133 68 -229 186 -287
59 -29 76 -33 152 -33 73 0 93 4 142 28 72 35 130 93 165 165 24 49 28 69 28
142 0 76 -4 93 -33 152 -59 121 -154 181 -292 186 -71 2 -94 -1 -141 -21z"/>
<path d="M9179 6426 c-90 -37 -141 -85 -182 -173 -33 -72 -31 -197 5 -275 35
-75 94 -138 165 -174 51 -26 68 -29 148 -29 76 0 98 4 139 25 196 100 261 321
146 499 -36 57 -78 92 -152 126 -73 34 -188 35 -269 1z"/>
<path d="M6760 5199 c-54 -24 -110 -76 -110 -101 0 -10 -5 -18 -11 -18 -6 0
-9 -9 -6 -20 3 -13 0 -20 -9 -20 -7 0 -17 -17 -22 -37 -13 -54 -15 -193 -3
-193 6 0 6 -12 0 -32 -5 -18 -8 -196 -6 -397 l2 -366 25 -49 c30 -59 95 -118
148 -134 22 -7 76 -12 121 -12 96 0 160 26 208 84 39 48 69 132 54 150 -9 10
-8 15 4 20 20 7 21 108 1 125 -9 7 -42 11 -87 9 l-73 -3 -8 -33 c-5 -20 -5
-38 0 -45 6 -8 4 -29 -4 -58 -11 -38 -21 -50 -50 -64 -48 -22 -102 -14 -131
20 -25 29 -26 44 -25 470 1 110 1 264 2 342 0 137 1 142 26 172 22 27 33 31
73 31 67 0 91 -28 100 -114 4 -37 12 -71 17 -76 6 -6 43 -10 85 -8 l74 3 -2
94 c-2 78 -6 102 -28 147 -46 93 -119 133 -245 133 -54 1 -87 -5 -120 -20z"/>
<path d="M2644 5203 c-6 -5 -11 -30 -10 -58 0 -27 -2 -279 -6 -560 -3 -280 -3
-566 1 -635 l6 -125 230 0 230 0 0 84 0 84 -142 -2 -143 -2 -1 588 c-1 323 -1
593 0 600 1 6 -3 15 -10 18 -16 11 -142 16 -155 8z"/>
<path d="M3770 5200 c-13 -8 -15 -60 -15 -372 1 -540 6 -960 12 -985 5 -21 11
-23 72 -23 36 0 72 4 79 8 10 7 12 108 10 485 -2 341 0 477 8 477 6 0 11 -12
12 -27 0 -16 10 -73 20 -128 11 -55 41 -208 66 -340 70 -363 77 -397 90 -435
11 -33 14 -35 62 -38 48 -3 52 -1 62 25 6 15 13 53 15 83 3 30 7 64 10 75 16
60 28 122 36 177 5 35 22 124 36 198 15 74 33 178 41 230 7 52 20 115 28 140
l14 45 2 -50 c0 -27 1 -233 1 -456 0 -224 4 -420 8 -435 7 -28 10 -29 75 -32
41 -2 73 2 82 8 11 10 13 59 8 273 -2 144 -4 435 -4 647 0 236 -4 397 -11 416
-6 19 -19 34 -32 38 -38 10 -185 7 -192 -4 -7 -12 -46 -226 -50 -280 -4 -42
-32 -193 -45 -235 -9 -31 -24 -105 -61 -310 -13 -66 -24 -115 -26 -110 -9 30
-66 308 -73 355 -4 31 -14 80 -23 110 -8 30 -18 82 -21 115 -4 33 -15 103 -26
155 -10 52 -21 114 -25 138 -11 66 -22 72 -133 72 -53 0 -104 -5 -112 -10z"/>
<path d="M5917 5198 c-2 -7 -2 -204 0 -438 2 -290 0 -415 -7 -395 -10 31 -102
384 -170 654 -22 84 -44 159 -50 166 -13 16 -221 8 -233 -9 -5 -6 -6 -99 -3
-206 3 -107 8 -271 11 -365 3 -93 7 -296 9 -451 3 -154 10 -292 15 -307 10
-25 15 -27 71 -27 88 0 100 15 100 127 0 48 -5 160 -11 248 -5 88 -9 268 -7
400 l3 240 19 -75 c10 -41 47 -183 83 -315 35 -132 70 -269 78 -305 25 -113
74 -293 83 -302 5 -5 49 -8 98 -6 l89 3 -1 205 c-1 113 -1 383 -1 600 -1 488
-2 530 -14 552 -8 15 -23 18 -84 18 -50 0 -75 -4 -78 -12z"/>
<path d="M7321 5201 c-12 -8 -15 -91 -19 -481 l-5 -471 22 -6 c11 -3 21 -10
21 -15 0 -6 -7 -8 -14 -5 -9 4 -17 -1 -20 -11 -9 -29 -11 -366 -3 -379 6 -9
36 -13 93 -13 46 0 85 1 86 3 1 1 4 141 7 312 l6 309 95 -3 c52 -1 96 -4 98
-5 1 -2 3 -95 3 -207 1 -112 5 -212 10 -221 5 -9 5 -19 0 -22 -4 -3 -9 -36
-10 -74 -2 -88 4 -94 106 -90 l78 3 6 50 c8 68 11 1197 3 1262 -7 59 -11 62
-101 70 -98 9 -93 25 -93 -298 l0 -279 -100 0 -100 0 0 271 c0 167 -4 278 -10
290 -9 16 -22 19 -78 19 -37 0 -73 -4 -81 -9z"/>
<path d="M9207 5198 c-2 -7 -2 -204 1 -438 2 -234 2 -423 -1 -420 -4 3 -31
105 -62 225 -31 121 -70 270 -86 330 -16 61 -39 149 -50 197 -11 48 -26 91
-32 96 -7 5 -61 6 -122 3 l-110 -6 1 -180 c3 -525 21 -1142 35 -1167 15 -27
121 -26 149 2 24 24 25 59 10 325 -11 195 -18 665 -10 665 3 0 47 -163 98
-363 51 -199 102 -391 112 -427 10 -36 24 -90 30 -120 21 -91 20 -90 113 -90
45 0 88 4 96 9 12 8 13 50 6 273 -5 144 -7 382 -6 527 3 215 1 265 -10 272
-10 6 -11 9 -1 9 15 0 17 225 2 264 -9 25 -13 26 -84 26 -51 0 -76 -4 -79 -12z"/>
<path d="M3477 5178 c-8 -13 -38 -156 -67 -318 -30 -162 -57 -299 -60 -303 -7
-8 -23 59 -91 393 -22 107 -44 205 -49 218 -9 20 -16 22 -89 22 -62 0 -80 -3
-85 -15 -3 -9 46 -220 109 -469 l115 -454 0 -189 c0 -112 5 -203 11 -222 11
-31 12 -31 78 -31 38 0 74 5 84 13 14 10 16 45 20 262 l3 250 52 215 c120 496
144 599 140 621 -3 23 -8 24 -80 27 -71 3 -78 1 -91 -20z"/>
<path d="M4905 5178 c-8 -22 -83 -540 -84 -578 0 -8 -4 -33 -10 -55 -15 -59
-43 -254 -37 -263 2 -4 -2 -32 -10 -62 -16 -63 -43 -241 -42 -285 0 -16 -3
-43 -7 -59 -6 -22 -4 -32 10 -43 20 -14 132 -18 151 -5 6 4 21 75 33 159 12
83 24 158 27 167 4 10 28 17 78 21 121 12 119 13 134 -80 7 -44 16 -112 20
-151 4 -39 15 -82 25 -97 16 -25 23 -27 87 -27 83 0 92 10 80 85 -5 28 -16
106 -25 175 -9 69 -29 217 -45 330 -16 113 -31 232 -35 265 -19 184 -66 489
-77 503 -7 8 -48 12 -140 12 -94 0 -130 -3 -133 -12z m169 -431 c6 -78 15
-151 41 -344 l8 -53 -82 0 -82 0 6 33 c19 117 36 262 32 277 -2 10 1 41 9 69
7 28 18 88 25 134 l12 82 12 -55 c7 -30 16 -95 19 -143z"/>
<path d="M8197 5183 c-10 -18 -75 -442 -81 -533 -2 -30 -7 -62 -10 -70 -10
-26 -37 -201 -41 -264 -2 -33 -9 -79 -14 -101 -19 -74 -43 -257 -37 -281 3
-12 2 -26 -4 -29 -14 -9 -13 -58 2 -73 13 -13 136 -17 154 -4 6 4 19 63 28
132 31 223 23 204 86 213 30 4 75 6 100 5 l44 -3 22 -155 c13 -85 23 -158 23
-162 3 -24 37 -38 91 -38 78 0 90 6 90 44 0 17 -18 164 -41 326 -22 162 -53
399 -69 525 -36 284 -60 435 -72 458 -8 15 -25 17 -138 17 -71 0 -131 -3 -133
-7z m163 -398 c0 -35 25 -244 46 -387 l7 -48 -82 0 c-44 0 -81 1 -81 3 0 2 9
70 21 151 11 82 18 155 15 162 -3 7 3 51 14 96 10 46 22 106 26 133 l7 50 13
-60 c7 -33 13 -78 14 -100z"/>
<path d="M9714 4638 c-43 -61 -77 -117 -77 -123 0 -10 118 -190 144 -219 5 -5
10 95 11 222 2 128 2 232 1 232 -1 0 -37 -50 -79 -112z"/>
<path d="M6020 3270 l0 -350 1885 0 1885 0 0 350 0 350 -1885 0 -1885 0 0
-350z"/>
</g>
</svg>
